<?xml version="1.0" encoding="UTF-8"?>
<svg version="1.1" xmlns="http://www.w3.org/2000/svg" width="128" height="128">
<path d="M0 0 C0.81714981 -0.0071553 1.63429962 -0.01431061 2.47621155 -0.02168274 C3.36922974 -0.02437164 4.26224792 -0.02706055 5.18232727 -0.02983093 C6.12576492 -0.03640213 7.06920258 -0.04297333 8.04122925 -0.04974365 C11.16809671 -0.06947753 14.2949161 -0.08114032 17.42182922 -0.09111023 C19.02451125 -0.09722352 19.02451125 -0.09722352 20.65957069 -0.10346031 C26.3162428 -0.12432278 31.97289064 -0.13862299 37.6295929 -0.147995 C43.46595291 -0.15905159 49.30193085 -0.19344264 55.13815594 -0.23316669 C59.6309682 -0.25934252 64.12368962 -0.26768778 68.61657143 -0.27127647 C70.76749561 -0.27614096 72.91841578 -0.28775097 75.06926537 -0.30631447 C78.08512284 -0.33072285 81.09999452 -0.32973739 84.11592102 -0.32279968 C85.44026657 -0.34201477 85.44026657 -0.34201477 86.79136658 -0.36161804 C93.59589147 -0.30477661 99.14298946 1.30144211 104.03120422 6.21748352 C104.48624329 6.8955304 104.94128235 7.57357727 105.41011047 8.27217102 C105.88319641 8.95537415 106.35628235 9.63857727 106.84370422 10.34248352 C109.49285499 14.5774581 109.1502591 18.53888685 109.18135071 23.41108704 C109.19113449 24.37227951 109.20091827 25.33347198 109.21099854 26.3237915 C109.24099783 29.51620595 109.26235467 32.7085782 109.28120422 35.90107727 C109.28777605 36.991266 109.29434788 38.08145473 109.30111885 39.20467949 C109.33373786 44.97919797 109.35817832 50.75369784 109.37763977 56.52827454 C109.39543062 61.30361401 109.43021237 66.07836051 109.48017883 70.85346985 C109.54045222 76.62004682 109.57112636 82.38607521 109.58081245 88.15295219 C109.58935911 90.34774591 109.60815756 92.54252529 109.63755608 94.73713875 C109.67659106 97.8179012 109.67748881 100.896541 109.66963196 103.97749329 C109.69963287 105.32685471 109.69963287 105.32685471 109.73023987 106.70347595 C109.65214316 113.55906865 107.59893804 118.07974886 102.97261047 123.14717102 C97.45402607 128.12389041 92.25961184 128.87932117 85.02754211 128.81001282 C83.58443916 128.82556465 83.58443916 128.82556465 82.11218262 128.84143066 C78.95193545 128.86839475 75.79308646 128.85886096 72.63276672 128.84638977 C70.42373266 128.85230301 68.21470181 128.85955155 66.00567627 128.86807251 C61.38323733 128.87993465 56.76128045 128.87327511 52.13887024 128.85395813 C46.22953274 128.83108013 40.32163402 128.85784987 34.41243839 128.8990202 C29.85259313 128.92465567 25.29308945 128.92200243 20.73319817 128.91112709 C18.55520255 128.90964504 16.37718016 128.91727645 14.19925117 128.93437767 C11.14765058 128.9544504 8.09856033 128.93587088 5.04707336 128.90766907 C3.71185135 128.92824371 3.71185135 128.92824371 2.34965515 128.94923401 C-4.44497948 128.82439969 -8.88930126 126.5619247 -14.02738953 122.14717102 C-17.43991771 118.23282214 -19.13813515 114.28377142 -19.1880188 109.08854675 C-19.19806442 108.26442795 -19.20811005 107.44030914 -19.21846008 106.59121704 C-19.22429108 105.69041916 -19.23012207 104.78962128 -19.23612976 103.86152649 C-19.24591354 102.90994156 -19.25569733 101.95835663 -19.26577759 100.97793579 C-19.29573126 97.82342425 -19.3171194 94.66895519 -19.33598328 91.51435852 C-19.3425551 90.43611942 -19.34912693 89.35788033 -19.3558979 88.24696732 C-19.38849461 82.53728294 -19.41294232 76.82761722 -19.43241882 71.11787415 C-19.45021728 66.39787038 -19.48501451 61.67846567 -19.53495789 56.95869446 C-19.59523275 51.25580233 -19.62590511 45.55346481 -19.63559151 39.85026932 C-19.6441364 37.68059463 -19.66293049 35.51093436 -19.69233513 33.34144211 C-19.73137363 30.29670389 -19.73226768 27.2541131 -19.72441101 24.20918274 C-19.74441162 23.32053024 -19.76441223 22.43187775 -19.78501892 21.51629639 C-19.70660609 14.71271069 -17.44905123 10.28732859 -13.02738953 5.14717102 C-9.12412967 1.74471509 -5.18407291 0.03122355 0 0 Z " fill="#191F40" transform="translate(19.027389526367188,-0.1471710205078125)"/>
<path d="M0 0 C3.3 0 6.6 0 10 0 C10.33 7.26 10.66 14.52 11 22 C12.69125 19.855 14.3825 17.71 16.125 15.5 C16.68018311 14.80567871 17.23536621 14.11135742 17.80737305 13.39599609 C20.4489325 10.0793354 22.76028891 6.76903306 24.9375 3.125 C26.25390625 1.2890625 26.25390625 1.2890625 28 0 C32.08574464 -0.64317529 35.90313584 -0.47730456 40 0 C37.1820887 4.34128331 34.16233727 8.4503932 30.9375 12.5 C29.96739843 13.72652336 28.99734792 14.95308711 28.02734375 16.1796875 C27.53089355 16.80584961 27.03444336 17.43201172 26.52294922 18.07714844 C24.00724665 21.25343465 21.50373236 24.43927611 19 27.625 C18.54359131 28.20443359 18.08718262 28.78386719 17.61694336 29.38085938 C16.40784285 30.91786306 15.20370619 32.45876809 14 34 C13.41605469 34.62132812 12.83210938 35.24265625 12.23046875 35.8828125 C10.33275994 39.14807655 10.42639837 42.56620134 10.3125 46.25 C10.27833984 46.99507812 10.24417969 47.74015625 10.20898438 48.5078125 C10.12685946 50.33802492 10.06174347 52.16898669 10 54 C6.7 54 3.4 54 0 54 C0 36.18 0 18.36 0 0 Z " fill="#8443B1" transform="translate(65,37)"/>
<path d="M0 0 C2.97 0 5.94 0 9 0 C9.09938156 5.55007795 9.1717096 11.09963018 9.21972656 16.65039062 C9.23975767 18.53589916 9.26699073 20.42134623 9.30175781 22.30664062 C9.35065272 25.02749862 9.37305382 27.74753056 9.390625 30.46875 C9.41127014 31.30241089 9.43191528 32.13607178 9.45318604 32.99499512 C9.45537983 38.8056182 8.24541656 43.13809174 5 48 C0.44338765 52.43977614 -4.09995043 54.2855317 -10.4375 54.3125 C-15.96283339 54.17918096 -19.48683726 53.29385373 -23.65625 49.48828125 C-27.49313784 45.46135887 -28.7738324 42.54110614 -29 37 C-25.94998682 36.71226291 -23.0385411 36.55044757 -20 37 C-18.125 39.375 -18.125 39.375 -17 42 C-13.82052979 44.11964681 -13.17322527 44.29226781 -9.5625 44 C-8.80066406 43.95875 -8.03882812 43.9175 -7.25390625 43.875 C-3.71424977 42.5008526 -2.78964818 40.29004168 -1 37 C-0.42963953 34.10200561 -0.39527787 31.26798212 -0.390625 28.3203125 C-0.37408875 27.50754852 -0.35755249 26.69478455 -0.34051514 25.85739136 C-0.29221045 23.27984937 -0.27070406 20.70289656 -0.25 18.125 C-0.22182552 16.3697623 -0.19189603 14.61455185 -0.16015625 12.859375 C-0.08645669 8.57296522 -0.03677548 4.28687914 0 0 Z " fill="#0EBAE5" transform="translate(53,37)"/>
<path d="M0 0 C4.62196122 4.28249514 8.16610045 9.12796719 11.8125 14.25 C12.7087207 15.49136719 12.7087207 15.49136719 13.62304688 16.7578125 C18 22.86053571 18 22.86053571 18 24 C13.68812085 25.01588776 10.2845466 25.22836772 6 24 C3.48032788 21.89287983 1.59902177 19.47166709 -0.3125 16.8125 C-0.79823486 16.14017334 -1.28396973 15.46784668 -1.78442383 14.77514648 C-3.80923774 11.71913945 -5.0241692 9.87975891 -4.921875 6.15625 C-3.76970617 3.46134664 -2.19438536 1.91123886 0 0 Z " fill="#7E40AA" transform="translate(87,67)"/>
<path d="M0 0 C3.3 0 6.6 0 10 0 C10 0.33 10 0.66 10 1 C7.36 1 4.72 1 2 1 C2.16242188 2.24007812 2.32484375 3.48015625 2.4921875 4.7578125 C3.12509789 10.46742459 3.14701687 16.13593498 3.125 21.875 C3.12886719 22.90625 3.13273437 23.9375 3.13671875 25 C3.13542969 25.98742187 3.13414063 26.97484375 3.1328125 27.9921875 C3.13112061 29.32805908 3.13112061 29.32805908 3.12939453 30.69091797 C3 33 3 33 2 36 C1.85507877 37.40664926 1.75371069 38.8181133 1.68359375 40.23046875 C1.64169922 41.03291016 1.59980469 41.83535156 1.55664062 42.66210938 C1.51732422 43.49548828 1.47800781 44.32886719 1.4375 45.1875 C1.39431641 46.03248047 1.35113281 46.87746094 1.30664062 47.74804688 C1.20068482 49.83184433 1.0998498 51.91590103 1 54 C0.67 54 0.34 54 0 54 C0 36.18 0 18.36 0 0 Z " fill="#633488" transform="translate(65,37)"/>
<path d="M0 0 C1.32 0.99 2.64 1.98 4 3 C2.50902342 6.7952131 0.24299151 8.61042731 -3 11 C-3.66 10.34 -4.32 9.68 -5 9 C-4.82194873 5.61702587 -4.21162756 4.23727939 -1.9375 1.6875 C-1.298125 1.130625 -0.65875 0.57375 0 0 Z " fill="#62318B" transform="translate(87,67)"/>
<path d="M0 0 C1 3 1 3 0.29296875 5.0078125 C-0.25423828 6.05582031 -0.25423828 6.05582031 -0.8125 7.125 C-1.16957031 7.82882813 -1.52664062 8.53265625 -1.89453125 9.2578125 C-3 11 -3 11 -5 12 C-5 11.01 -5 10.02 -5 9 C-4.34 9 -3.68 9 -3 9 C-3.061875 8.2575 -3.12375 7.515 -3.1875 6.75 C-2.96905704 3.54616994 -2.09749995 2.35968744 0 0 Z " fill="#198CC0" transform="translate(61,74)"/>
<path d="M0 0 C0.66 0.66 1.32 1.32 2 2 C0.02 4.31 -1.96 6.62 -4 9 C-4.33 8.01 -4.66 7.02 -5 6 C-3.59554165 3.7363436 -1.8032087 1.9791315 0 0 Z " fill="#542A7A" transform="translate(87,67)"/>
</svg>
